<svg width="1080" height="1080" viewBox="0 0 1080 1080" fill="none" xmlns="http://www.w3.org/2000/svg">
<g clip-path="url(#clip0_207_33)">
<circle cx="540" cy="540" r="540" fill="#C24802"/>
<g clip-path="url(#clip1_207_33)">
<path d="M451.517 954.45C444.167 948.513 443.1 939.193 449.033 932.492L453.067 927.922L493.2 928.507L533.333 929.077V864.098V799.135L501.65 798.045C449.4 796.272 406.217 786.302 366.667 766.865C357.583 762.408 335.467 748.648 322.5 739.393C320.667 738.092 313.033 736.222 305.55 735.23C298.05 734.237 283.8 731.375 273.883 728.854C226.933 716.964 204.017 700.439 186.717 666.054C177.033 646.813 172.017 630.011 169 606.687C160.85 544.017 175.167 451.486 200.633 402.137C205.133 393.419 206.95 387.06 208.967 372.893C218.217 307.946 243.583 256.809 288.317 212.942C311.3 190.399 322.867 181.778 346.917 169.27C384.683 149.622 416.017 142.026 465.833 140.4C509.333 138.969 546.433 143.311 583.333 154.16C594.8 157.527 602.733 158.536 625 159.495C680.4 161.886 756.3 180.981 805.917 205.021C889.117 245.31 909.867 304.856 871.65 393.614C868.767 400.316 866.017 407.001 865.567 408.464C865.1 409.928 866.25 418.354 868.133 427.202C880.217 484.13 875.383 545.27 854.767 596.098C841.733 628.222 820.25 661.305 795.1 688.012C790.467 692.924 786.667 697.348 786.667 697.836C786.65 705.058 780.833 739.865 777.583 752.243C768.767 785.846 755.167 804.942 732.9 814.977C721.883 819.938 719.133 820.475 701.417 821.093C690.433 821.483 677.05 820.93 670.633 819.84C657.5 817.612 626.417 807.739 602.8 798.305C586.067 791.621 582.417 791.279 567.067 794.841L563.3 795.719L563.733 862.634L564.167 929.548L603.5 930.41C636.95 931.159 643.483 931.711 647.217 934.102C652.383 937.404 654.433 943.731 652.283 949.701L650.75 953.946H598.283C569.433 953.946 525.2 954.548 500 955.263C463.083 956.337 453.65 956.174 451.517 954.45ZM695.517 776.689C708.833 773.94 722.65 766.686 729.883 758.651C735.4 752.503 745.517 734.205 744.683 731.863C744.4 731.082 738.917 733.766 732.5 737.832C719.083 746.339 687.517 762.116 671.667 768.231C665.7 770.541 658.583 773.322 655.833 774.412L650.833 776.413L656.667 777.535C666.767 779.503 683.75 779.129 695.517 776.689ZM520 769.581L527.5 768.427L510.833 763.173C487.55 755.854 468.8 752.194 435 748.388C391.8 743.541 384.6 743.004 385.683 744.712C387.217 747.136 416.067 757.464 433.333 761.774C459.05 768.183 503.117 772.151 520 769.581ZM607.5 757.692C611.167 756.846 624.3 752.812 636.667 748.746C674.167 736.417 712.483 715.972 740.067 693.558L754.683 681.685L755.683 668.185C756.25 660.752 757.467 629.425 758.417 598.554C760.467 532.144 765.183 490.798 773.617 465.181C778.9 449.095 792.083 423.64 804.15 406.139C810.117 397.486 815 389.288 815 387.922C815 383.416 798.617 353.456 786.733 336.183C753.033 287.273 702.483 244.448 645.667 216.651C618.433 203.329 595.983 194.855 585.483 193.928C569.467 192.513 527.217 200.532 493.483 211.397C401.85 240.886 311.517 301.831 259.117 369.526C240.133 394.054 238.217 397.925 235.65 416.89C232.633 439.157 232.75 482.633 235.9 507.519C246.15 588.714 273.6 652.31 317.9 697.43L329.167 708.913L345 709.889C353.717 710.409 380.583 711.58 404.733 712.458C442.667 713.857 470.9 716.443 486.583 719.973C496 722.087 523.483 730.269 526.533 731.863C528.317 732.79 530.583 733.554 531.55 733.554C532.783 733.554 533.333 717.582 533.333 682.628V631.702L528.017 627.864C513.783 617.584 466.2 575.523 441.633 551.483C392.133 503.062 371.667 476.696 371.667 461.375C371.667 455.487 376.15 450.542 381.5 450.542C382.833 450.542 394.85 461.651 408.2 475.216C421.567 488.798 442.2 508.218 454.033 518.4C486.533 546.295 531.283 581.086 533.2 579.931C534.317 579.264 534.933 547.254 535 486.667C535.133 375.642 536.4 358.303 545.133 347.47C549.433 342.119 553.967 342.038 559.25 347.178L563.333 351.179V410.611C563.333 461.521 563.683 470.06 565.75 470.06C570.367 470.06 621.8 430.927 639.533 413.93C649.333 404.545 658.6 396.867 660.133 396.867C668.417 396.867 667.517 408.042 658.1 421.916C650.7 432.83 604 479.25 581.85 497.711L563.333 513.163L563.75 630.271L564.167 747.38L578.1 754.276C588.25 759.318 593.217 760.912 596.433 760.213C598.85 759.692 603.833 758.554 607.5 757.692ZM274.483 691.672C258.217 670.023 238.65 634.142 230.133 610.346C221.983 587.608 213.683 549.743 210.067 518.855C206.683 489.887 206.467 488.716 204.9 491.433C201.483 497.386 196.217 546.164 196.217 571.717C196.233 619.78 206 648.878 229.8 671.747C236.783 678.448 246.483 686.028 251.35 688.581C259.633 692.908 275.75 699.202 278.9 699.333C279.65 699.365 277.667 695.917 274.483 691.672ZM800.8 625.001C829.283 577.507 841.333 520.531 834.867 463.896C833.867 455.21 832.717 447.777 832.317 447.387C831 446.102 825.35 452.722 819.217 462.725C804.9 486.049 794.833 533.055 792.533 587.169C792.017 599.237 791.2 615.974 790.683 624.334C790.05 635.053 790.317 639.217 791.583 638.452C792.567 637.851 796.717 631.8 800.8 625.001ZM844.667 341.957C853.517 321.902 854.017 299.993 846 284.004C833.2 258.468 808.6 240.219 770.183 227.776C752.367 221.986 714.783 213.056 715.933 214.861C716.383 215.561 724.783 222.181 734.617 229.581C773.433 258.777 812.8 302.79 834.367 341.143C837.017 345.828 839.633 349.666 840.217 349.683C840.783 349.683 842.8 346.218 844.667 341.957ZM306.267 273.66C351.667 236.917 413.983 203.834 475.417 183.828C484.35 180.916 491.667 178.151 491.667 177.663C491.667 176.134 449.733 178.704 432.5 181.307C367 191.18 317.6 222.734 282.217 277.319C274.033 289.941 265 306.222 265 308.337C265 308.906 271 303.994 278.35 297.423C285.7 290.836 298.25 280.149 306.267 273.66Z" fill="#F1F1F1"/>
</g>
</g>
<defs>
<clipPath id="clip0_207_33">
<rect width="1080" height="1080" fill="white"/>
</clipPath>
<clipPath id="clip1_207_33">
<rect width="1080" height="1080" fill="white"/>
</clipPath>
</defs>
</svg>
