<svg width="4071" height="1236" viewBox="0 0 4071 1236" fill="none" xmlns="http://www.w3.org/2000/svg">
<path d="M1409.2 474H1326.4V933H1201.3V824.1C1168.9 842.1 1128.4 852.9 1080.7 852.9C961.9 852.9 884.5 794.4 884.5 688.2C884.5 584.7 958.3 528.9 1078.9 528.9C1115.8 528.9 1147.3 532.5 1173.4 538.8L1163.5 636.9C1143.7 632.4 1122.1 629.7 1096.9 629.7C1042.9 629.7 1010.5 652.2 1010.5 691.8C1010.5 728.7 1039.3 751.2 1087.9 751.2C1132.9 751.2 1176.1 729.6 1201.3 695.4V474H853V373.2H1409.2V474ZM1193.66 240C1193.66 200.4 1223.36 169.8 1263.86 169.8C1303.46 169.8 1333.16 200.4 1333.16 240C1333.16 280.5 1303.46 311.1 1263.86 311.1C1223.36 311.1 1193.66 280.5 1193.66 240ZM1525.76 802.5C1461.86 801.6 1416.86 771 1416.86 715.2C1416.86 671.1 1449.26 644.1 1495.16 644.1C1528.46 644.1 1553.66 655.8 1580.66 680.1C1643.66 655.8 1678.76 602.7 1678.76 537C1678.76 485.7 1657.16 456 1616.66 456C1588.76 456 1572.56 472.2 1572.56 493.8C1572.56 522.6 1598.66 537 1642.76 542.4L1608.56 616.2C1506.86 606.3 1457.36 559.5 1457.36 489.3C1457.36 415.5 1511.36 364.2 1612.16 364.2C1734.56 364.2 1801.16 439.8 1801.16 546C1801.16 641.4 1751.66 712.5 1660.76 760.2C1701.26 798 1738.16 840.3 1772.36 884.4L1667.96 950.1C1629.26 892.5 1590.56 842.1 1555.46 800.7C1545.56 801.6 1535.66 802.5 1525.76 802.5ZM2009.06 474V933H1883.96V474H1821.86V373.2H2091.86V474H2009.06ZM3091.82 474H2798.42V600C2824.52 582.9 2855.12 573 2895.62 573C2989.22 573 3048.62 631.5 3048.62 727.8C3048.62 786.3 3028.82 843 2978.42 906.9L2869.52 846.6C2901.92 808.8 2923.52 771.9 2923.52 729.6C2923.52 691.8 2904.62 672.9 2872.22 672.9C2842.52 672.9 2813.72 691.8 2798.42 717V933H2672.42V818.7C2638.22 840.3 2595.92 851.1 2550.02 851.1C2439.32 851.1 2362.82 793.5 2362.82 688.2C2362.82 586.5 2433.92 528.9 2557.22 528.9C2587.82 528.9 2618.42 531.6 2645.42 537L2634.62 636.9C2616.62 632.4 2595.02 629.7 2572.52 629.7C2518.52 629.7 2488.82 652.2 2488.82 691.8C2488.82 730.5 2517.62 750.3 2559.92 750.3C2606.72 750.3 2648.12 723.3 2672.42 691.8V474H2331.32V373.2H3091.82V474ZM3648.99 474V933H3522.99V811.5C3483.39 834 3438.39 844.8 3381.69 844.8C3258.39 844.8 3163.89 785.4 3129.69 650.4C3270.09 627.9 3321.39 578.4 3321.39 510.9C3321.39 474.9 3306.09 452.4 3275.49 452.4C3251.19 452.4 3235.89 466.8 3235.89 490.2C3235.89 510 3249.39 525.3 3275.49 535.2L3210.69 602.7C3148.59 577.5 3122.49 537 3122.49 487.5C3122.49 411.9 3178.29 364.2 3271.89 364.2C3380.79 364.2 3437.49 429 3437.49 522.6C3437.49 604.5 3395.19 667.5 3291.69 699.9C3313.29 730.5 3343.89 744.9 3385.29 744.9C3438.39 744.9 3489.69 721.5 3522.99 678.3V474H3468.99V373.2H3731.79V474H3648.99ZM3913.53 474V933H3787.53V474H3718.23V373.2H3996.33V474H3913.53Z" fill="#C24802"/>
<g clip-path="url(#clip0_207_75)">
<circle cx="429.5" cy="625.5" r="307.5" fill="#C24802"/>
</g>
<g clip-path="url(#clip1_207_75)">
<path d="M381.261 861.506C377.17 858.126 376.577 852.819 379.879 849.003L382.123 846.4L404.457 846.733L426.79 847.058V810.056V773.063L409.159 772.442C380.083 771.433 356.052 765.755 334.043 754.687C328.988 752.149 316.681 744.314 309.465 739.044C308.445 738.303 304.197 737.237 300.033 736.672C295.859 736.107 287.929 734.477 282.411 733.042C256.284 726.271 243.531 716.861 233.904 697.281C228.516 686.324 225.724 676.756 224.045 663.474C219.51 627.788 227.477 575.096 241.649 546.995C244.153 542.03 245.164 538.409 246.286 530.342C251.433 493.358 265.55 464.239 290.443 439.259C303.233 426.422 309.669 421.513 323.053 414.39C344.069 403.202 361.506 398.876 389.228 397.95C413.435 397.135 434.08 399.608 454.614 405.786C460.995 407.703 465.41 408.277 477.801 408.824C508.63 410.185 550.867 421.059 578.478 434.748C624.777 457.69 636.324 491.599 615.057 542.142C613.453 545.958 611.922 549.764 611.672 550.598C611.412 551.431 612.052 556.229 613.1 561.268C619.824 593.685 617.135 628.501 605.662 657.445C598.409 675.737 586.454 694.576 572.458 709.785C569.88 712.582 567.765 715.101 567.765 715.379C567.756 719.491 564.519 739.312 562.711 746.361C557.804 765.496 550.236 776.37 537.845 782.084C531.715 784.909 530.184 785.215 520.325 785.567C514.213 785.789 506.766 785.474 503.195 784.854C495.887 783.585 478.589 777.963 465.447 772.591C456.135 768.784 454.104 768.589 445.562 770.618L443.466 771.118L443.707 809.222L443.948 847.326L465.837 847.817C484.451 848.243 488.087 848.558 490.164 849.92C493.039 851.8 494.18 855.403 492.984 858.802L492.13 861.219H462.934C446.879 861.219 422.264 861.562 408.241 861.969C387.697 862.581 382.448 862.488 381.261 861.506ZM517.042 760.281C524.453 758.716 532.141 754.585 536.167 750.01C539.236 746.509 544.866 736.089 544.402 734.755C544.245 734.311 541.193 735.839 537.623 738.154C530.157 742.998 512.59 751.983 503.77 755.465C500.45 756.78 496.489 758.364 494.959 758.985L492.177 760.124L495.423 760.763C501.043 761.884 510.494 761.671 517.042 760.281ZM419.37 756.234L423.544 755.576L414.269 752.585C401.313 748.417 390.878 746.333 372.069 744.165C348.029 741.405 344.023 741.1 344.626 742.072C345.479 743.452 361.533 749.334 371.142 751.788C385.453 755.437 409.975 757.697 419.37 756.234ZM468.062 749.463C470.103 748.982 477.411 746.685 484.293 744.369C505.161 737.349 526.484 725.706 541.833 712.943L549.967 706.182L550.524 698.494C550.839 694.262 551.516 676.423 552.045 658.843C553.186 621.027 555.81 597.482 560.503 582.895C563.443 573.734 570.78 559.239 577.495 549.273C580.815 544.346 583.532 539.678 583.532 538.9C583.532 536.334 574.415 519.274 567.803 509.437C549.049 481.586 520.919 457.199 489.302 441.371C474.147 433.785 461.654 428.959 455.811 428.431C446.898 427.626 423.386 432.192 404.614 438.379C353.622 455.171 303.353 489.876 274.194 528.425C263.63 542.392 262.563 544.596 261.135 555.396C259.456 568.075 259.521 592.833 261.274 607.004C266.978 653.24 282.253 689.455 306.905 715.147L313.175 721.686L321.986 722.242C326.837 722.539 341.788 723.205 355.227 723.706C376.336 724.502 392.047 725.975 400.775 727.985C406.015 729.189 421.309 733.848 423.006 734.755C423.998 735.283 425.26 735.718 425.798 735.718C426.484 735.718 426.79 726.623 426.79 706.719V677.72L423.831 675.534C415.911 669.68 389.432 645.728 375.761 632.039C348.215 604.466 336.826 589.452 336.826 580.727C336.826 577.374 339.32 574.559 342.298 574.559C343.04 574.559 349.727 580.885 357.156 588.609C364.594 596.343 376.076 607.402 382.661 613.2C400.747 629.084 425.649 648.896 426.716 648.238C427.337 647.859 427.68 629.631 427.718 595.13C427.792 531.907 428.497 522.034 433.357 515.865C435.749 512.818 438.272 512.772 441.212 515.698L443.485 517.977V551.82C443.485 580.811 443.679 585.673 444.829 585.673C447.398 585.673 476.02 563.389 485.888 553.71C491.342 548.366 496.499 543.994 497.352 543.994C501.961 543.994 501.461 550.357 496.22 558.258C492.102 564.472 466.115 590.906 453.789 601.419L443.485 610.218L443.716 676.904L443.948 743.591L451.702 747.518C457.35 750.39 460.114 751.297 461.904 750.899C463.249 750.603 466.022 749.954 468.062 749.463ZM282.745 711.869C273.693 699.541 262.804 679.109 258.065 665.558C253.53 652.61 248.911 631.048 246.898 613.459C245.015 596.964 244.895 596.297 244.023 597.844C242.122 601.234 239.191 629.01 239.191 643.561C239.2 670.93 244.635 687.5 257.879 700.523C261.766 704.339 267.163 708.655 269.872 710.109C274.481 712.573 283.45 716.157 285.203 716.231C285.62 716.25 284.516 714.286 282.745 711.869ZM575.63 673.904C591.481 646.858 598.186 614.413 594.588 582.163C594.031 577.217 593.391 572.984 593.169 572.762C592.436 572.03 589.292 575.8 585.879 581.496C577.912 594.778 572.31 621.545 571.03 652.36C570.743 659.232 570.288 668.763 570.001 673.524C569.648 679.628 569.797 681.999 570.501 681.563C571.049 681.221 573.358 677.775 575.63 673.904ZM600.041 512.725C604.966 501.305 605.244 488.829 600.783 479.725C593.66 465.183 579.971 454.791 558.593 447.706C548.678 444.408 527.764 439.324 528.404 440.352C528.654 440.75 533.328 444.52 538.801 448.734C560.401 465.359 582.308 490.422 594.31 512.262C595.784 514.93 597.24 517.116 597.565 517.125C597.88 517.125 599.003 515.152 600.041 512.725ZM300.432 473.834C325.696 452.911 360.374 434.072 394.561 422.68C399.532 421.022 403.603 419.447 403.603 419.169C403.603 418.299 380.268 419.762 370.678 421.244C334.229 426.866 306.738 444.835 287.048 475.918C282.494 483.105 277.468 492.377 277.468 493.581C277.468 493.905 280.806 491.108 284.897 487.366C288.987 483.615 295.971 477.53 300.432 473.834Z" fill="#F1F1F1"/>
</g>
<defs>
<clipPath id="clip0_207_75">
<rect width="615" height="615" fill="white" transform="translate(122 318)"/>
</clipPath>
<clipPath id="clip1_207_75">
<rect width="601" height="615" fill="white" transform="translate(130 318)"/>
</clipPath>
</defs>
</svg>
